<?xml version="1.0" encoding="UTF-8"?>
<svg id="Layer_1" data-name="Layer 1" xmlns="http://www.w3.org/2000/svg" viewBox="0 0 760 440">
  <defs>
    <style>
      .cls-1 {
        fill: #db6b30;
      }

      .cls-1, .cls-2, .cls-3, .cls-4, .cls-5 {
        stroke-width: 0px;
      }

      .cls-2 {
        fill: #623412;
      }

      .cls-3 {
        fill: #000;
      }

      .cls-4, .cls-6, .cls-7 {
        fill: #f2e9ea;
      }

      .cls-8 {
        fill: none;
      }

      .cls-8, .cls-6, .cls-7 {
        stroke: #000;
        stroke-miterlimit: 10;
      }

      .cls-5 {
        fill: #f5dadf;
      }

      .cls-6 {
        font-size: 81.29px;
        letter-spacing: -.08em;
      }

      .cls-6, .cls-7 {
        font-family: InputMono-Medium, 'Input Mono';
        font-weight: 500;
      }

      .cls-7 {
        font-size: 201.19px;
        letter-spacing: -.08em;
      }
    </style>
  </defs>
  <g>
    <rect class="cls-5" x="32.5" y="23.5" width="727" height="416" rx="36.8" ry="36.8"/>
    <path class="cls-3" d="M722.7,24c20.01,0,36.3,16.28,36.3,36.3v342.41c0,20.01-16.28,36.3-36.3,36.3H69.3c-20.01,0-36.3-16.28-36.3-36.3V60.3c0-20.01,16.28-36.3,36.3-36.3h653.41M722.7,23H69.3c-20.6,0-37.3,16.7-37.3,37.3v342.41c0,20.6,16.7,37.3,37.3,37.3h653.41c20.6,0,37.3-16.7,37.3-37.3V60.3c0-20.6-16.7-37.3-37.3-37.3h0Z"/>
  </g>
  <g>
    <rect class="cls-4" x="93.5" y="73.5" width="608" height="313"/>
    <path class="cls-3" d="M701,74v312H94V74h607M702,73H93v314h609V73h0Z"/>
  </g>
  <g>
    <rect class="cls-1" x=".5" y="163.5" width="31" height="141"/>
    <path class="cls-3" d="M31,164v140H1v-140h30M32,163H0v142h32v-142h0Z"/>
  </g>
  <g>
    <rect class="cls-1" x="111.5" y=".5" width="126" height="22"/>
    <path class="cls-3" d="M237,1v21h-125V1h125M238,0h-127v23h127V0h0Z"/>
  </g>
  <g>
    <rect class="cls-1" x="289.5" y="6.5" width="78" height="16"/>
    <path class="cls-3" d="M367,7v15h-77V7h77M368,6h-79v17h79V6h0Z"/>
  </g>
  <g>
    <rect class="cls-2" x="227.5" y="107.5" width="325" height="245"/>
    <path class="cls-3" d="M552,108v244H228V108h324M553,107H227v246h326V107h0Z"/>
  </g>
  <line class="cls-8" x1="390.5" y1="107.5" x2="390.5" y2="352.5"/>
  <text class="cls-7" transform="translate(234.88 296.7) scale(.49 1)"><tspan x="0" y="0">10</tspan></text>
  <text class="cls-7" transform="translate(395.88 296.7) scale(.49 1)"><tspan x="0" y="0">10</tspan></text>
  <text class="cls-6" transform="translate(344 296.2) scale(.83 1)"><tspan x="0" y="0">.</tspan></text>
  <line class="cls-8" x1="227.5" y1="222.5" x2="553.5" y2="222.5"/>
</svg>