<?xml version="1.0" encoding="UTF-8"?>
<svg id="Layer_1" data-name="Layer 1" xmlns="http://www.w3.org/2000/svg" viewBox="0 0 482 529.78">
  <defs>
    <style>
      .cls-1 {
        fill: #623412;
      }

      .cls-1, .cls-2, .cls-3 {
        stroke-width: 0px;
      }

      .cls-2 {
        fill: #e68699;
      }

      .cls-3, .cls-4 {
        fill: #fff;
      }

      .cls-4 {
        stroke: #623412;
        stroke-linecap: round;
        stroke-miterlimit: 10;
        stroke-width: 6px;
      }
    </style>
  </defs>
  <circle class="cls-2" cx="309" cy="173" r="173"/>
  <g>
    <g>
      <g>
        <path class="cls-3" d="M403,290c-25.8,0-49.47-12.32-63.33-32.95l-1.14-1.7-2,.44c-6.67,1.47-13.58,2.21-20.54,2.21-52.93,0-96-43.07-96-96s43.07-96,96-96c22.88,0,45.03,8.18,62.38,23.03,17.17,14.69,28.64,34.99,32.31,57.15l.36,2.2,2.21.29c36.9,4.77,64.73,35.01,64.73,70.33,0,39.15-33.64,71-75,71Z"/>
        <path class="cls-1" d="M316,69c22.16,0,43.62,7.92,60.43,22.31,16.63,14.23,27.75,33.89,31.3,55.36l.73,4.4,4.42.57c17.12,2.21,32.86,10.24,44.31,22.59,11.48,12.39,17.81,28.29,17.81,44.77,0,37.5-32.3,68-72,68-24.8,0-47.54-11.82-60.84-31.62l-2.28-3.39-3.99.88c-6.46,1.42-13.15,2.14-19.89,2.14-51.28,0-93-41.72-93-93s41.72-93,93-93M316,63c-54.68,0-99,44.32-99,99s44.32,99,99,99c7.27,0,14.36-.78,21.18-2.28,13.84,20.61,38.15,34.28,65.82,34.28,43.08,0,78-33.13,78-74,0-37.44-29.31-68.39-67.35-73.31-7.76-46.92-48.53-82.69-97.65-82.69h0Z"/>
      </g>
      <g>
        <path class="cls-3" d="M97.65,367.99h-.16c-.13.01-.26.01-.38.01h-.11c-51.83,0-94-44.64-94-99.5,0-41.75,24.9-79.35,61.96-93.57l1.48-.57.36-1.54c5.33-22.63,18.31-43.15,36.56-57.78,18.79-15.07,41.49-23.03,65.63-23.03,48.26,0,90.14,32.65,101.85,79.4l.79,3.13,3.07-1.01c9.06-3,18.58-4.52,28.3-4.52,31.53,0,60.49,16.32,75.59,42.58l.82,1.42,1.64.08c38.11,1.86,67.96,33.22,67.96,71.41,0,32.27-19.6,57.53-53.78,69.3-10.26,3.53-20.88,7.19-31.64,9.71-14.16,3.31-30.24,4.49-40.58,4.49H98.02c-.07,0-.38-.01-.38-.01Z"/>
        <path class="cls-1" d="M169,95c23.2,0,45.06,7.59,63.22,21.95,17.61,13.93,30.3,33.53,35.72,55.18l1.57,6.27,6.13-2.03c8.76-2.9,17.96-4.37,27.36-4.37,30.46,0,58.42,15.74,72.99,41.08l1.63,2.84,3.28.16c36.51,1.78,65.1,31.83,65.1,68.42,0,15.56-4.68,29.35-13.92,40.98-8.91,11.22-21.99,20.03-37.83,25.48-10.2,3.51-20.74,7.14-31.35,9.62-13.91,3.25-29.73,4.41-39.9,4.41H98.13s-.09,0-.12,0c0,0-.02,0-.03,0l-.32-.02-.32.02c-.06,0-.13,0-.19,0-.05,0-.1,0-.16,0-50.18,0-91-43.29-91-96.5,0-20.27,5.86-39.66,16.94-56.09,10.81-16.02,25.71-28.01,43.1-34.68l2.96-1.14.73-3.09c5.17-21.98,17.79-41.92,35.52-56.13,18.25-14.64,40.3-22.37,63.75-22.37M169,89c-51.09,0-93.89,35.47-105.11,83.13C26.62,186.43,0,224.18,0,268.5c0,56.61,43.43,102.5,97,102.5.21,0,.42,0,.63-.01.17.01.33.01.5.01h224.87c9.26,0,26-1,41.26-4.57,10.85-2.54,21.4-6.16,31.94-9.79,33.8-11.64,55.8-37.45,55.8-72.14,0-39.91-31.38-72.49-70.81-74.41-15.1-26.27-44.46-44.09-78.19-44.09-10.24,0-20.08,1.64-29.24,4.67-11.75-46.92-54.19-81.67-104.76-81.67h0Z"/>
      </g>
    </g>
    <line class="cls-4" x1="85.19" y1="409.22" x2="52.81" y2="460.78"/>
    <line class="cls-4" x1="163.19" y1="409.22" x2="130.81" y2="460.78"/>
    <line class="cls-4" x1="96.19" y1="474.22" x2="63.81" y2="525.78"/>
    <line class="cls-4" x1="175.19" y1="474.22" x2="142.81" y2="525.78"/>
    <line class="cls-4" x1="264.19" y1="475.22" x2="231.81" y2="526.78"/>
    <line class="cls-4" x1="238.19" y1="409.22" x2="205.81" y2="460.78"/>
    <line class="cls-4" x1="331.19" y1="409.22" x2="298.81" y2="460.78"/>
  </g>
</svg>